<mxfile host="app.diagrams.net" agent="Mozilla/5.0 (Windows NT 10.0; Win64; x64) AppleWebKit/537.36 (KHTML, like Gecko) Chrome/134.0.0.0 Safari/537.36" version="26.1.1">
  <diagram name="Page-1" id="dRqQN23ut3cL4cNerAWu">
    <mxGraphModel dx="2074" dy="1588" grid="0" gridSize="10" guides="1" tooltips="1" connect="1" arrows="1" fold="1" page="0" pageScale="1" pageWidth="850" pageHeight="1100" math="0" shadow="0">
      <root>
        <mxCell id="0" />
        <mxCell id="1" parent="0" />
        <mxCell id="wcx3B6jDhubxXja1B4H8-3" value="Region" style="sketch=0;outlineConnect=0;gradientColor=none;html=1;whiteSpace=wrap;fontSize=12;fontStyle=0;shape=mxgraph.aws4.group;grIcon=mxgraph.aws4.group_region;strokeColor=#879196;fillColor=none;verticalAlign=top;align=left;spacingLeft=30;fontColor=#879196;dashed=1;" vertex="1" parent="1">
          <mxGeometry x="-195" y="-501" width="897" height="764" as="geometry" />
        </mxCell>
        <mxCell id="wcx3B6jDhubxXja1B4H8-4" value="VPC" style="sketch=0;outlineConnect=0;gradientColor=none;html=1;whiteSpace=wrap;fontSize=12;fontStyle=0;shape=mxgraph.aws4.group;grIcon=mxgraph.aws4.group_vpc;strokeColor=#879196;fillColor=none;verticalAlign=top;align=left;spacingLeft=30;fontColor=#879196;dashed=0;" vertex="1" parent="1">
          <mxGeometry x="-178" y="-309" width="862" height="564" as="geometry" />
        </mxCell>
        <mxCell id="wcx3B6jDhubxXja1B4H8-5" value="Availability zone" style="sketch=0;outlineConnect=0;gradientColor=none;html=1;whiteSpace=wrap;fontSize=12;fontStyle=0;shape=mxgraph.aws4.group;grIcon=mxgraph.aws4.group_availability_zone;strokeColor=#545B64;fillColor=none;verticalAlign=top;align=left;spacingLeft=30;fontColor=#545B64;dashed=1;" vertex="1" parent="1">
          <mxGeometry x="-165" y="-362" width="390" height="600" as="geometry" />
        </mxCell>
        <mxCell id="wcx3B6jDhubxXja1B4H8-6" value="Availability zone" style="sketch=0;outlineConnect=0;gradientColor=none;html=1;whiteSpace=wrap;fontSize=12;fontStyle=0;shape=mxgraph.aws4.group;grIcon=mxgraph.aws4.group_availability_zone;strokeColor=#545B64;fillColor=none;verticalAlign=top;align=left;spacingLeft=30;fontColor=#545B64;dashed=1;" vertex="1" parent="1">
          <mxGeometry x="279" y="-368" width="390" height="600" as="geometry" />
        </mxCell>
        <mxCell id="wcx3B6jDhubxXja1B4H8-7" value="Public subnet" style="points=[[0,0],[0.25,0],[0.5,0],[0.75,0],[1,0],[1,0.25],[1,0.5],[1,0.75],[1,1],[0.75,1],[0.5,1],[0.25,1],[0,1],[0,0.75],[0,0.5],[0,0.25]];outlineConnect=0;gradientColor=none;html=1;whiteSpace=wrap;fontSize=12;fontStyle=0;container=1;pointerEvents=0;collapsible=0;recursiveResize=0;shape=mxgraph.aws4.group;grIcon=mxgraph.aws4.group_security_group;grStroke=0;strokeColor=#7AA116;fillColor=#F2F6E8;verticalAlign=top;align=left;spacingLeft=30;fontColor=#248814;dashed=0;" vertex="1" parent="1">
          <mxGeometry x="-138" y="-284" width="342" height="219" as="geometry" />
        </mxCell>
        <mxCell id="wcx3B6jDhubxXja1B4H8-25" value="" style="sketch=0;points=[[0,0,0],[0.25,0,0],[0.5,0,0],[0.75,0,0],[1,0,0],[0,1,0],[0.25,1,0],[0.5,1,0],[0.75,1,0],[1,1,0],[0,0.25,0],[0,0.5,0],[0,0.75,0],[1,0.25,0],[1,0.5,0],[1,0.75,0]];outlineConnect=0;fontColor=#232F3E;fillColor=#ED7100;strokeColor=#ffffff;dashed=0;verticalLabelPosition=bottom;verticalAlign=top;align=center;html=1;fontSize=12;fontStyle=0;aspect=fixed;shape=mxgraph.aws4.resourceIcon;resIcon=mxgraph.aws4.compute;" vertex="1" parent="wcx3B6jDhubxXja1B4H8-7">
          <mxGeometry x="38" y="79" width="75" height="75" as="geometry" />
        </mxCell>
        <mxCell id="wcx3B6jDhubxXja1B4H8-32" value="" style="endArrow=none;html=1;rounded=0;fontSize=12;startSize=8;endSize=8;curved=1;exitX=0.487;exitY=0.632;exitDx=0;exitDy=0;exitPerimeter=0;" edge="1" parent="wcx3B6jDhubxXja1B4H8-7" source="wcx3B6jDhubxXja1B4H8-5">
          <mxGeometry width="50" height="50" relative="1" as="geometry">
            <mxPoint x="113" y="169" as="sourcePoint" />
            <mxPoint x="163" y="119" as="targetPoint" />
          </mxGeometry>
        </mxCell>
        <mxCell id="wcx3B6jDhubxXja1B4H8-8" value="Public subnet" style="points=[[0,0],[0.25,0],[0.5,0],[0.75,0],[1,0],[1,0.25],[1,0.5],[1,0.75],[1,1],[0.75,1],[0.5,1],[0.25,1],[0,1],[0,0.75],[0,0.5],[0,0.25]];outlineConnect=0;gradientColor=none;html=1;whiteSpace=wrap;fontSize=12;fontStyle=0;container=1;pointerEvents=0;collapsible=0;recursiveResize=0;shape=mxgraph.aws4.group;grIcon=mxgraph.aws4.group_security_group;grStroke=0;strokeColor=#7AA116;fillColor=#F2F6E8;verticalAlign=top;align=left;spacingLeft=30;fontColor=#248814;dashed=0;" vertex="1" parent="1">
          <mxGeometry x="307" y="-282" width="342" height="219" as="geometry" />
        </mxCell>
        <mxCell id="wcx3B6jDhubxXja1B4H8-16" value="" style="outlineConnect=0;dashed=0;verticalLabelPosition=bottom;verticalAlign=top;align=center;html=1;shape=mxgraph.aws3.application_load_balancer;fillColor=#F58534;gradientColor=none;" vertex="1" parent="wcx3B6jDhubxXja1B4H8-8">
          <mxGeometry x="66" y="92" width="69" height="72" as="geometry" />
        </mxCell>
        <mxCell id="wcx3B6jDhubxXja1B4H8-9" value="Private subnet" style="points=[[0,0],[0.25,0],[0.5,0],[0.75,0],[1,0],[1,0.25],[1,0.5],[1,0.75],[1,1],[0.75,1],[0.5,1],[0.25,1],[0,1],[0,0.75],[0,0.5],[0,0.25]];outlineConnect=0;gradientColor=none;html=1;whiteSpace=wrap;fontSize=12;fontStyle=0;container=1;pointerEvents=0;collapsible=0;recursiveResize=0;shape=mxgraph.aws4.group;grIcon=mxgraph.aws4.group_security_group;grStroke=0;strokeColor=#00A4A6;fillColor=#E6F6F7;verticalAlign=top;align=left;spacingLeft=30;fontColor=#147EBA;dashed=0;" vertex="1" parent="1">
          <mxGeometry x="-136" y="-8" width="329" height="196" as="geometry" />
        </mxCell>
        <mxCell id="wcx3B6jDhubxXja1B4H8-10" value="Private subnet" style="points=[[0,0],[0.25,0],[0.5,0],[0.75,0],[1,0],[1,0.25],[1,0.5],[1,0.75],[1,1],[0.75,1],[0.5,1],[0.25,1],[0,1],[0,0.75],[0,0.5],[0,0.25]];outlineConnect=0;gradientColor=none;html=1;whiteSpace=wrap;fontSize=12;fontStyle=0;container=1;pointerEvents=0;collapsible=0;recursiveResize=0;shape=mxgraph.aws4.group;grIcon=mxgraph.aws4.group_security_group;grStroke=0;strokeColor=#00A4A6;fillColor=#E6F6F7;verticalAlign=top;align=left;spacingLeft=30;fontColor=#147EBA;dashed=0;" vertex="1" parent="1">
          <mxGeometry x="320" y="-8" width="329" height="193" as="geometry" />
        </mxCell>
        <mxCell id="wcx3B6jDhubxXja1B4H8-11" value="Auto Scaling group" style="points=[[0,0],[0.25,0],[0.5,0],[0.75,0],[1,0],[1,0.25],[1,0.5],[1,0.75],[1,1],[0.75,1],[0.5,1],[0.25,1],[0,1],[0,0.75],[0,0.5],[0,0.25]];outlineConnect=0;gradientColor=none;html=1;whiteSpace=wrap;fontSize=12;fontStyle=0;container=1;pointerEvents=0;collapsible=0;recursiveResize=0;shape=mxgraph.aws4.groupCenter;grIcon=mxgraph.aws4.group_auto_scaling_group;grStroke=1;strokeColor=#D86613;fillColor=none;verticalAlign=top;align=center;fontColor=#D86613;dashed=1;spacingTop=25;" vertex="1" parent="1">
          <mxGeometry x="-109" y="-42" width="730" height="214" as="geometry" />
        </mxCell>
        <mxCell id="wcx3B6jDhubxXja1B4H8-33" value="" style="endArrow=none;html=1;rounded=0;fontSize=12;startSize=8;endSize=8;curved=1;entryX=0.415;entryY=0.652;entryDx=0;entryDy=0;entryPerimeter=0;" edge="1" parent="wcx3B6jDhubxXja1B4H8-11" target="wcx3B6jDhubxXja1B4H8-6">
          <mxGeometry width="50" height="50" relative="1" as="geometry">
            <mxPoint x="136" y="65" as="sourcePoint" />
            <mxPoint x="186" y="15" as="targetPoint" />
          </mxGeometry>
        </mxCell>
        <mxCell id="wcx3B6jDhubxXja1B4H8-34" value="" style="endArrow=classic;html=1;rounded=0;fontSize=12;startSize=8;endSize=8;curved=1;entryX=0.806;entryY=0.151;entryDx=0;entryDy=0;entryPerimeter=0;" edge="1" parent="wcx3B6jDhubxXja1B4H8-11" target="wcx3B6jDhubxXja1B4H8-13">
          <mxGeometry width="50" height="50" relative="1" as="geometry">
            <mxPoint x="551" y="63" as="sourcePoint" />
            <mxPoint x="601" y="18" as="targetPoint" />
          </mxGeometry>
        </mxCell>
        <mxCell id="wcx3B6jDhubxXja1B4H8-36" value="" style="endArrow=classic;html=1;rounded=0;fontSize=12;startSize=8;endSize=8;curved=1;entryX=0.147;entryY=0.108;entryDx=0;entryDy=0;entryPerimeter=0;" edge="1" parent="wcx3B6jDhubxXja1B4H8-11">
          <mxGeometry width="50" height="50" relative="1" as="geometry">
            <mxPoint x="134" y="33" as="sourcePoint" />
            <mxPoint x="134.19799999999987" y="99.0440000000001" as="targetPoint" />
          </mxGeometry>
        </mxCell>
        <mxCell id="wcx3B6jDhubxXja1B4H8-13" value="Security group" style="fillColor=none;strokeColor=#DD3522;verticalAlign=top;fontStyle=0;fontColor=#DD3522;whiteSpace=wrap;html=1;" vertex="1" parent="1">
          <mxGeometry x="-69" y="49" width="634" height="93" as="geometry" />
        </mxCell>
        <mxCell id="wcx3B6jDhubxXja1B4H8-14" style="edgeStyle=none;curved=1;rounded=0;orthogonalLoop=1;jettySize=auto;html=1;exitX=0.5;exitY=0;exitDx=0;exitDy=0;fontSize=12;startSize=8;endSize=8;" edge="1" parent="1" source="wcx3B6jDhubxXja1B4H8-13" target="wcx3B6jDhubxXja1B4H8-13">
          <mxGeometry relative="1" as="geometry" />
        </mxCell>
        <mxCell id="wcx3B6jDhubxXja1B4H8-15" value="" style="outlineConnect=0;dashed=0;verticalLabelPosition=bottom;verticalAlign=top;align=center;html=1;shape=mxgraph.aws3.application_load_balancer;fillColor=#F58536;gradientColor=none;" vertex="1" parent="1">
          <mxGeometry x="89" y="-187" width="69" height="72" as="geometry" />
        </mxCell>
        <mxCell id="wcx3B6jDhubxXja1B4H8-17" value="Application Load Balancer" style="outlineConnect=0;gradientColor=none;html=1;whiteSpace=wrap;fontSize=12;fontStyle=0;strokeColor=#879196;fillColor=none;verticalAlign=top;align=center;fontColor=#879196;dashed=1;spacingTop=3;" vertex="1" parent="1">
          <mxGeometry x="67" y="-224" width="407" height="130" as="geometry" />
        </mxCell>
        <mxCell id="wcx3B6jDhubxXja1B4H8-18" value="" style="sketch=0;outlineConnect=0;fontColor=#232F3E;gradientColor=none;fillColor=#8C4FFF;strokeColor=none;dashed=0;verticalLabelPosition=bottom;verticalAlign=top;align=center;html=1;fontSize=12;fontStyle=0;aspect=fixed;pointerEvents=1;shape=mxgraph.aws4.internet_gateway;" vertex="1" parent="1">
          <mxGeometry x="232.5" y="-328" width="41" height="41" as="geometry" />
        </mxCell>
        <mxCell id="wcx3B6jDhubxXja1B4H8-19" value="" style="sketch=0;points=[[0,0,0],[0.25,0,0],[0.5,0,0],[0.75,0,0],[1,0,0],[0,1,0],[0.25,1,0],[0.5,1,0],[0.75,1,0],[1,1,0],[0,0.25,0],[0,0.5,0],[0,0.75,0],[1,0.25,0],[1,0.5,0],[1,0.75,0]];outlineConnect=0;fontColor=#232F3E;fillColor=#ED7100;strokeColor=#ffffff;dashed=0;verticalLabelPosition=bottom;verticalAlign=top;align=center;html=1;fontSize=12;fontStyle=0;aspect=fixed;shape=mxgraph.aws4.resourceIcon;resIcon=mxgraph.aws4.ec2;" vertex="1" parent="1">
          <mxGeometry x="0.88" y="59.38" width="61.62" height="61.62" as="geometry" />
        </mxCell>
        <mxCell id="wcx3B6jDhubxXja1B4H8-20" value="" style="sketch=0;points=[[0,0,0],[0.25,0,0],[0.5,0,0],[0.75,0,0],[1,0,0],[0,1,0],[0.25,1,0],[0.5,1,0],[0.75,1,0],[1,1,0],[0,0.25,0],[0,0.5,0],[0,0.75,0],[1,0.25,0],[1,0.5,0],[1,0.75,0]];outlineConnect=0;fontColor=#232F3E;fillColor=#ED7100;strokeColor=#ffffff;dashed=0;verticalLabelPosition=bottom;verticalAlign=top;align=center;html=1;fontSize=12;fontStyle=0;aspect=fixed;shape=mxgraph.aws4.resourceIcon;resIcon=mxgraph.aws4.ec2;" vertex="1" parent="1">
          <mxGeometry x="418" y="63.75" width="59.25" height="59.25" as="geometry" />
        </mxCell>
        <mxCell id="wcx3B6jDhubxXja1B4H8-22" value="App Instance 1" style="text;html=1;align=center;verticalAlign=middle;whiteSpace=wrap;rounded=0;" vertex="1" parent="1">
          <mxGeometry x="-15.499999999999998" y="117.63" width="82.5" height="30" as="geometry" />
        </mxCell>
        <mxCell id="wcx3B6jDhubxXja1B4H8-24" value="App Instance 2" style="text;html=1;align=center;verticalAlign=middle;whiteSpace=wrap;rounded=0;" vertex="1" parent="1">
          <mxGeometry x="404" y="117.63" width="82.5" height="30" as="geometry" />
        </mxCell>
        <mxCell id="wcx3B6jDhubxXja1B4H8-27" value="EC2 Bastion Host" style="text;html=1;align=center;verticalAlign=middle;whiteSpace=wrap;rounded=0;" vertex="1" parent="1">
          <mxGeometry x="-101.5" y="-124" width="86" height="30" as="geometry" />
        </mxCell>
        <mxCell id="wcx3B6jDhubxXja1B4H8-31" value="" style="endArrow=none;html=1;rounded=0;fontSize=12;startSize=8;endSize=8;curved=1;entryX=0.49;entryY=0.327;entryDx=0;entryDy=0;entryPerimeter=0;" edge="1" parent="1" target="wcx3B6jDhubxXja1B4H8-5">
          <mxGeometry width="50" height="50" relative="1" as="geometry">
            <mxPoint x="-24" y="-166" as="sourcePoint" />
            <mxPoint x="26" y="-216" as="targetPoint" />
          </mxGeometry>
        </mxCell>
      </root>
    </mxGraphModel>
  </diagram>
</mxfile>
